<svg width="35" height="35" viewBox="0 0 35 35" fill="none" xmlns="http://www.w3.org/2000/svg">
<path d="M34.1932 14.7372C31.9686 13.3952 31.6366 11.6978 32.6791 9.66708C32.8429 9.34715 32.9116 8.98944 32.947 8.64728C32.9735 8.40955 32.8784 8.1696 32.8363 7.92742C32.7057 7.90743 32.5773 7.88965 32.4445 7.86966C32.1966 8.27624 31.8114 8.66728 31.7207 9.0872C31.5015 10.1137 31.309 11.1557 31.3045 12.1844C31.3001 13.3864 30.3992 13.9507 28.8851 14.5839C29.2991 14.0151 29.4938 13.6685 29.775 13.3708C30.6471 12.451 31.0035 11.4956 30.7932 10.3558C30.5497 9.05387 30.1734 7.65415 31.6653 6.9965C31.5613 5.85228 31.4329 5.02577 31.4241 4.19482C31.413 3.09282 31.5126 1.98415 31.5215 0.879918C31.5215 0.637744 31.3864 0.211161 31.2403 0.195608C30.3394 0.104515 29.2039 -0.168765 28.5619 0.151173C27.8669 0.497771 27.4308 1.38871 27.9355 2.19966C28.5553 3.19502 28.5354 4.21704 27.9112 5.27461C26.9461 6.90985 26.8 8.54064 27.8293 10.1359C27.9599 10.3381 28.0019 10.5736 28.0838 10.7935C27.3556 10.1603 26.8885 9.41158 26.2886 8.73838C25.6423 8.0163 25.7264 7.34087 26.1625 6.5277C27.785 3.51051 27.7562 3.50163 25.6711 0.831039C25.0867 0.084519 22.5854 -0.124329 21.6158 0.515545C22.1825 0.999895 22.747 1.48202 23.3114 1.96415C22.2223 1.74864 21.3591 1.25762 20.3851 0.962125C19.5882 0.717728 18.5921 0.479997 17.8085 0.651074C16.6973 0.893249 15.7477 0.902136 14.7406 0.588864C14.3466 0.464444 13.8795 0.315585 13.4788 0.375573C13.366 0.393347 13.076 0.0467486 12.4208 0.335581C11.9249 0.431118 11.4313 0.526654 10.9598 0.617748C10.9709 2.05302 10.3157 2.83509 8.88352 3.27056C8.30579 3.44386 7.77896 3.73269 7.24771 3.99264C6.10773 4.55031 5.50344 5.27239 5.52557 6.35218C5.54328 7.25645 5.23338 8.18071 5.06737 9.09386C5.02974 9.06276 4.98989 9.03387 4.95005 9.00499C4.85487 7.95409 4.53169 6.88541 4.73755 5.85894C4.88586 5.12131 5.6119 4.35479 6.31359 3.76158C6.89133 3.27278 7.79667 2.99506 8.58469 2.66401C9.28196 2.36852 9.86191 2.0819 9.88183 1.36649C9.88847 1.16431 10.4374 0.951016 10.9288 0.624413C10.1143 0.78216 9.36165 0.928798 8.77727 1.04211C8.42089 1.54868 8.31243 1.93082 8.01581 2.0819C7.15253 2.5196 6.24276 2.92396 5.29536 3.23057C4.24614 3.57272 3.97609 4.09707 3.95838 4.9058C3.94067 5.88338 3.67947 6.86985 3.52231 7.85188C3.24562 6.61879 3.30096 5.4057 3.2102 4.20371C3.14822 3.41276 3.46697 2.9684 4.49185 2.67957C5.19354 2.48183 5.80448 2.06413 6.71646 1.61755C5.87753 1.30872 5.46359 1.13765 5.02974 1.00434C4.26606 0.766607 3.49796 0.53332 2.71216 0.342246C2.46424 0.282258 2.06801 0.286701 1.87765 0.400013C1.14496 0.837705 0.46762 2.79954 0.770876 3.47941C1.34418 4.75916 2.07465 6.02113 1.20916 7.45196C1.15825 7.53417 1.14275 7.67414 1.2003 7.74079C2.13442 8.83836 1.45043 10.0292 1.30434 11.1801C1.11619 12.6643 1.90421 14.1262 1.03871 15.6326C0.558375 16.4746 0.279468 17.3833 0.0359783 18.2787C-0.0569907 18.6164 0.0337647 19.1586 0.325953 19.3319C2.54614 20.636 2.87596 22.2913 1.82895 24.2731C1.66293 24.5842 1.59653 24.933 1.55668 25.2685C1.52791 25.4995 1.6253 25.735 1.66515 25.9706C1.79575 25.9883 1.92635 26.0061 2.05473 26.0261C2.30486 25.6306 2.69223 25.2485 2.78299 24.8374C3.00434 23.8354 3.19914 22.8201 3.20356 21.8158C3.21242 20.6449 4.11333 20.0917 5.6274 19.4718C5.21346 20.0295 5.01867 20.3672 4.73534 20.656C3.86099 21.5536 3.5046 22.4868 3.71268 23.5999C3.95395 24.8685 4.32583 26.2349 2.8339 26.877C2.93572 27.9946 3.0619 28.7989 3.07075 29.6098C3.0796 30.6852 2.97778 31.765 2.96671 32.8425C2.9645 33.078 3.10174 33.4957 3.24783 33.5091C4.14875 33.5957 5.2843 33.8601 5.92622 33.5468C6.62128 33.2091 7.05956 32.3382 6.55487 31.5495C5.93508 30.5808 5.95943 29.5832 6.58586 28.5523C7.55318 26.9548 7.7037 25.364 6.67662 23.811C6.54602 23.6155 6.50396 23.3844 6.42206 23.1689C7.15031 23.7865 7.61516 24.5131 8.21282 25.1685C8.85696 25.8728 8.77284 26.5304 8.33456 27.3236C6.70761 30.2697 6.73638 30.2764 8.8149 32.8759C9.39706 33.6024 11.8984 33.8001 12.8679 33.1758C12.3034 32.7048 11.739 32.236 11.1745 31.765C12.2636 31.9716 13.7334 33.5802 14.7051 33.869C15.4666 34.0934 15.9757 33.9979 16.7018 33.8423C16.9165 33.7401 17.0382 33.6757 17.1024 33.6335C17.5628 33.3202 18.0542 33.0225 18.4947 32.6848C20.3453 31.2762 20.2523 29.6787 20.8455 27.9146C21.1864 26.9037 21.7088 26.0394 22.6628 25.2729C23.3557 24.7175 23.8825 24.0376 24.4824 23.4133C24.354 23.9398 24.1393 24.5064 23.7608 24.9974C23.2362 25.6795 22.2378 26.2638 22.0563 26.9637C21.4277 29.3632 21.027 31.4517 22.1205 33.9223C22.7359 33.8001 23.3513 33.6802 23.9356 33.5646C23.9201 32.0916 24.5753 31.294 26.0075 30.8474C26.583 30.6696 27.1121 30.3764 27.6411 30.1097C28.7811 29.541 29.0356 29.1499 29.0135 28.0413C28.9936 27.1126 29.3013 26.1683 29.4651 25.2307C29.5027 25.2618 29.5425 25.2907 29.5824 25.3218C29.6798 26.3994 30.3505 27.1503 30.1468 28.2012C30.0007 28.9566 29.2747 29.7409 28.5752 30.3497C27.9997 30.8496 27.0921 31.1318 26.3063 31.4717C25.6091 31.7739 25.0313 32.0649 25.0114 32.8003C25.0048 33.007 24.4558 33.2247 23.9666 33.558C24.7812 33.398 25.5338 33.2491 26.1182 33.1336C26.4746 32.6159 26.5808 32.2227 26.8774 32.0694C27.7407 31.6228 28.6483 31.2117 29.5957 30.8963C30.6427 30.5497 30.9149 30.0098 30.9282 29.1833C30.9437 28.179 30.8574 27.5191 31.0101 26.5127C31.2912 27.7769 31.5834 28.6745 31.6764 29.9076C31.7406 30.7185 31.4218 31.1718 30.397 31.4673C29.6953 31.6694 29.0866 32.096 28.1746 32.5515C29.0135 32.8692 29.4274 33.0447 29.8635 33.1847C30.6272 33.4291 31.3953 33.6713 32.1833 33.869C32.4312 33.9312 32.8274 33.9268 33.0178 33.8112C33.7483 33.358 34.4212 31.3473 34.1179 30.6519C33.5424 29.3366 32.46 28.3901 33.3255 26.9259C33.3742 26.8415 33.3919 26.6971 33.3321 26.6282C32.398 25.4995 33.0776 24.282 33.2215 23.1C33.4074 21.5803 32.6149 20.0784 33.476 18.5342C33.9541 17.6722 34.2308 16.7413 34.4765 15.8237C34.5784 15.4704 34.4854 14.9149 34.1932 14.7372ZM19.7144 4.83914C20.7592 4.3859 21.8615 4.0193 23.2162 3.50829C22.3928 4.62363 20.8145 4.81692 20.6397 6.12778C20.4736 7.36753 20.9009 8.03629 22.7779 8.35179C20.6751 8.58063 19.5794 7.93187 18.643 7.05648C18.238 6.67878 18.9109 5.18796 19.7144 4.83914ZM16.3365 5.30127C16.673 5.79673 16.8811 6.26997 16.8213 6.80987C15.6703 6.40328 16.0775 5.8345 16.3365 5.30127ZM13.2863 2.19077C13.4921 2.25298 13.698 2.31297 13.9038 2.38407C14.2492 2.50404 14.5591 2.79732 14.7229 3.07282C14.7583 3.13503 14.7981 3.19502 14.8357 3.25501C14.2824 4.27703 14.061 5.39237 13.6913 6.45882C13.3482 7.4453 12.8258 8.28958 11.8674 9.03832C11.1745 9.58043 10.6455 10.2447 10.0456 10.8557C10.174 10.3403 10.3909 9.78928 10.7695 9.30938C11.2963 8.64284 12.2946 8.07184 12.4783 7.38975C12.941 5.67453 13.4656 3.94154 13.2863 2.19077ZM14.5236 13.7463C13.8883 13.5419 13.8817 12.2066 13.8817 12.2066L13.8773 11.7156C14.4174 12.5332 15.1589 13.9507 14.5236 13.7463ZM12.2437 1.85528C11.3383 4.1415 12.6554 6.71655 10.0766 8.7717C8.71529 6.18332 10.526 4.02597 12.2437 1.85528ZM10.526 21.5203C10.599 19.6274 9.74016 18.1699 7.38052 17.4145C6.50175 17.1323 6.24719 16.6035 6.31581 15.8925C6.38664 15.1527 6.30253 14.4106 6.39771 13.673C6.49732 12.9131 6.09224 12.531 5.14927 12.4665C3.16815 12.331 2.39119 11.449 2.29601 9.98924C2.23846 9.10719 1.86879 8.24958 1.90642 7.272C2.20083 7.83411 2.65682 8.37178 2.75643 8.96056C2.99992 10.3914 4.01593 11.189 5.79562 11.5089C6.61464 11.6578 7.1968 11.9933 7.22557 12.7154C7.27649 14.0151 8.2593 14.8416 9.5985 15.4704C10.4529 15.8725 10.9089 16.428 11.0993 17.21C11.4557 18.6831 11.8851 20.1473 12.4141 21.5825C12.5602 21.978 12.2968 23.0178 12.786 23.2333C13.2309 23.4288 13.7887 24.4686 14.3399 25.164C12.2238 24.5686 10.7805 23.5244 10.5481 21.7203C10.5437 21.6536 10.5238 21.587 10.526 21.5203ZM13.5076 29.141C12.4628 29.5854 12.6333 29.7565 11.2786 30.2542C12.1042 29.1655 13.6825 28.9744 13.8596 27.6947C14.0256 26.4838 13.6028 25.835 11.7257 25.5306C13.8286 25.304 13.6117 26.2283 14.5458 27.0814C14.9486 27.4503 14.3111 28.8011 13.5076 29.141ZM16.0399 24.7908C15.5419 23.5155 13.47 20.0251 13.7843 17.9499C15.3759 19.4074 15.9381 23.1267 16.0399 24.7908ZM19.088 23.0467C18.829 24.6441 18.373 26.1616 17.9989 27.7124C17.793 27.6191 17.8993 27.5791 17.6912 27.4836C17.8108 26.877 17.4942 26.1283 17.7621 25.624C18.964 23.36 18.2867 21.1182 16.4406 18.5853C15.6437 17.4922 15.5087 16.0147 15.0704 14.7128C15.1434 14.7439 15.2165 14.775 15.2873 14.8061C16.4649 16.759 17.7244 18.6875 18.7759 20.6805C19.1499 21.3937 19.2031 22.3357 19.088 23.0467ZM17.9657 17.4567L17.5252 16.0814C17.9657 14.9927 18.4792 13.7285 18.9928 12.4621C19.1367 12.4843 19.2828 12.5043 19.4244 12.5265C19.5971 14.2529 19.9623 16.0081 17.9657 17.4567ZM19.6878 18.3054C19.3248 17.8766 19.8162 17.9032 19.6856 17.2811C20.6795 18.2698 21.193 18.3765 21.9368 19.2719C22.2489 19.6473 22.2024 20.2117 22.3153 20.6894C21.3524 19.8362 20.394 19.1386 19.6878 18.3054ZM22.654 32.2871C23.5549 29.9453 21.8859 27.648 24.4602 25.5462C25.8282 28.2034 24.3695 30.0631 22.654 32.2871ZM32.6371 27.0992C32.3427 26.5238 31.8845 25.9683 31.7827 25.3662C31.5369 23.8998 30.5209 23.0778 28.7368 22.7467C27.92 22.5934 27.3334 22.2468 27.3046 21.507C27.2515 20.1739 26.2687 19.3252 24.9251 18.6764C24.0684 18.2632 23.6102 17.69 23.4199 16.8901C23.0613 15.3771 22.6274 13.8751 22.0962 12.4021C21.9501 11.9955 21.4233 11.6089 20.9341 11.3867C20.2722 11.0846 19.5019 10.8691 18.736 10.7602C16.5712 10.458 17.7045 8.1185 17.1135 6.81209C18.3796 8.46732 19.0614 9.24494 20.9805 9.6382C23.6656 10.1892 23.6899 10.1225 23.9644 12.2666C23.9711 12.3354 23.991 12.4043 23.9888 12.471C23.9201 14.4128 24.779 15.9103 27.1431 16.6879C28.0218 16.979 28.2786 17.5211 28.2122 18.2521C28.1414 19.0097 28.2277 19.7718 28.1347 20.5272C28.0373 21.307 28.4424 21.6981 29.3854 21.7669C31.3687 21.9091 32.1457 22.8156 32.2431 24.3131C32.3006 25.2174 32.6725 26.0994 32.6371 27.0992Z" fill="#8C734B"/>
</svg>
